# xmcd CD database file
#
# Track frame offsets:
#	150
#	33050
#	56680
#	71075
#	92905
#	107837
#	123240
#	146812
#	179647
#	197770
#	224362
#	243175
#	271937
#	306925
#
# Disc length: 4557 seconds
#
# Revision: 1
# Processed by: cddbd v1.4PL0 Copyright (c) Steve Scherf et al.
# Submitted via: CDex 1.50beta9
#
DISCID=d311cb0e
DTITLE=Spirit of Jazz - Disc 2 - To Nu-Jazz
DYEAR=1900
DGENRE=Jazz
TTITLE0=Saint Germain - Deep In It
TTITLE1=Bugge Wesseltoft - Change
TTITLE2=Swell Session - The Music In Her Eyes (Radio Edit)
TTITLE3=Archie Shepp - Hipnosis (Eddy and Dus Mix)
TTITLE4=De Phazz - Gudsdog
TTITLE5=David Grumel - O'Jazz Tribute
TTITLE6=Sparkling Experiences - Hardswing Vision (Jazz Club Mix)
TTITLE7=Jazzanova - Caravelle
TTITLE8=Metropolitan Jazz Affair - Moanin' Darkness
TTITLE9=Wibutee - Once You Get There
TTITLE10=Reminiscence Quartet - Jazz Thing
TTITLE11=Agent K - Ride Away Get Away
TTITLE12=Nathan Haines - Surprising
TTITLE13=Aqua Bassino - Welcome Home
EXTD=
EXTT0=
EXTT1=
EXTT2=
EXTT3=
EXTT4=
EXTT5=
EXTT6=
EXTT7=
EXTT8=
EXTT9=
EXTT10=
EXTT11=
EXTT12=
EXTT13=
PLAYORDER=
